<?xml version="1.0" encoding="utf-8"?>
<!-- Generator: Adobe Illustrator 25.3.0, SVG Export Plug-In . SVG Version: 6.00 Build 0)  -->
<svg version="1.1" id="Calque_1" xmlns="http://www.w3.org/2000/svg" xmlns:xlink="http://www.w3.org/1999/xlink" x="0px" y="0px"
	 viewBox="0 0 500 500" style="enable-background:new 0 0 500 500;" xml:space="preserve">
<style type="text/css">
	.st0{fill:url(#SVGID_1_);}
</style>
<linearGradient id="SVGID_1_" gradientUnits="userSpaceOnUse" x1="22.4879" y1="-6.6917" x2="504.9968" y2="537.9954" gradientTransform="matrix(1 0 0 -1 0 500)">
	<stop  offset="0" style="stop-color:#1E40AF"/>
	<stop  offset="0.8224" style="stop-color:#185EF5"/>
</linearGradient>
<path class="st0" d="M4,72C4,34.4,34.6,3.9,72.2,3.9c2.4,0,4.7,0.1,7,0.4c39.3,3.6,55.5,36.3,81.9,36.3S203.7,7.8,243,4.2
	c2.3-0.2,4.6-0.4,7-0.4c37.6,0,68.1,30.6,68.1,68.2c0,37.6-30.6,68.2-68.1,68.2l0,0c-44.5,0-60.9-36.6-88.9-36.6
	s-44.5,36.6-88.9,36.6l0,0C34.6,140.1,4,109.6,4,72z M250,181.7c-37.6,0-68.1,30.6-68.1,68.2c0,37.6,30.6,68.1,68.1,68.1
	s68.1-30.6,68.1-68.1S287.6,181.7,250,181.7z M427.9,140.1c37.6,0,68.1-30.6,68.1-68.2S465.4,3.8,427.9,3.8S359.7,34.4,359.7,72
	S390.3,140.1,427.9,140.1z M427.9,359.6L427.9,359.6c-1.2,0-2.3,0.1-3.5,0.2c-1.2,0.1-2.3,0.1-3.5,0.2c-39.3,3.6-55.5,36.3-82,36.3
	c-26.5,0-42.7-32.7-82-36.3c-1.1-0.1-2.3-0.1-3.5-0.2c-1.2,0-2.3-0.2-3.5-0.2l0,0c-2.4,0-4.7,0.1-7,0.4
	c-39.3,3.6-55.4,36.3-81.9,36.3c-14.2,0-25.4-9.4-38.8-18.6c-9.3-13.4-18.6-24.6-18.6-38.8c0-26.5,32.7-42.7,36.3-81.9
	c0.1-1.1,0.1-2.3,0.2-3.5c0.1-1.2,0.2-2.3,0.2-3.5l0,0c0-37.6-30.6-68.1-68.2-68.1C34.6,181.7,4,212.3,4,249.9l0,0
	c0,1.2,0.1,2.3,0.2,3.5c0.1,1.1,0.1,2.3,0.2,3.5c3.6,39.3,36.3,55.5,36.3,81.9c0,26.5-32.7,42.7-36.3,81.9c-0.1,1.1-0.1,2.3-0.2,3.5
	c-0.1,1.2-0.2,2.3-0.2,3.5l0,0c0,37.6,30.6,68.1,68.2,68.1l0,0c44.5,0,60.9-36.6,88.9-36.6c28,0,44.5,36.6,88.9,36.6l0,0
	c1.2,0,2.3-0.1,3.5-0.2c1.2-0.1,2.3-0.1,3.5-0.2c39.3-3.6,55.5-36.3,81.9-36.3c26.5,0,42.7,32.7,82,36.3c1.1,0.1,2.3,0.1,3.5,0.2
	c1.2,0,2.3,0.2,3.5,0.2l0,0c37.6,0,68.1-30.6,68.1-68.1C496,390.1,465.4,359.6,427.9,359.6z M427.9,181.7
	c-37.6,0-68.1,30.6-68.1,68.2c0,37.6,30.6,68.1,68.1,68.1s68.1-30.6,68.1-68.1S465.4,181.7,427.9,181.7z"/>
</svg>
