<?xml version="1.0" encoding="utf-8"?>
<!-- Generator: Adobe Illustrator 25.3.0, SVG Export Plug-In . SVG Version: 6.00 Build 0)  -->
<svg version="1.1" id="Calque_1" xmlns="http://www.w3.org/2000/svg" xmlns:xlink="http://www.w3.org/1999/xlink" x="0px" y="0px"
	 viewBox="0 0 500 500" style="enable-background:new 0 0 500 500;" xml:space="preserve">
<style type="text/css">
	.st0{fill:url(#SVGID_1_);}
</style>
<linearGradient id="SVGID_1_" gradientUnits="userSpaceOnUse" x1="22.4854" y1="506.6895" x2="618.2327" y2="-165.8284">
	<stop  offset="2.011022e-03" style="stop-color:#3D73B9"/>
	<stop  offset="1" style="stop-color:#51BDED"/>
</linearGradient>
<path class="st0" d="M4,72.01C4,34.43,34.57,3.86,72.15,3.86c2.36,0,4.7,0.12,7,0.36c39.26,3.57,55.45,36.28,81.92,36.28
	S203.74,7.79,243,4.22c2.3-0.24,4.64-0.36,7-0.36c37.58,0,68.15,30.57,68.15,68.15c0,37.57-30.57,68.15-68.15,68.15v0
	c-44.46,0-60.93-36.64-88.93-36.64c-28,0-44.46,36.64-88.92,36.64v0C34.57,140.15,4,109.58,4,72.01z M250,181.71
	c-37.58,0-68.15,30.57-68.15,68.15c0,37.57,30.57,68.15,68.15,68.15c37.58,0,68.15-30.57,68.15-68.15
	C318.15,212.28,287.58,181.71,250,181.71z M427.85,140.15c37.58,0,68.15-30.57,68.15-68.15c0-37.58-30.57-68.15-68.15-68.15
	c-37.58,0-68.15,30.57-68.15,68.15C359.7,109.58,390.28,140.15,427.85,140.15z M427.85,359.56L427.85,359.56
	c-1.21,0-2.33,0.12-3.5,0.18c-1.16,0.06-2.34,0.06-3.48,0.18c-39.27,3.56-55.47,36.28-81.95,36.28c-26.47,0-42.67-32.72-81.95-36.28
	c-1.14-0.12-2.32-0.12-3.48-0.18c-1.17-0.05-2.29-0.18-3.5-0.18v0c-2.36,0-4.7,0.12-7,0.36c-39.26,3.58-55.45,36.28-81.92,36.28
	c-14.17,0-25.39-9.38-38.77-18.64c-9.27-13.38-18.64-24.6-18.64-38.77c0-26.48,32.72-42.67,36.28-81.95
	c0.12-1.14,0.12-2.3,0.18-3.46c0.05-1.18,0.18-2.3,0.18-3.52h0c0-37.58-30.57-68.15-68.15-68.15C34.57,181.71,4,212.28,4,249.86h0
	c0,1.22,0.13,2.34,0.18,3.52c0.06,1.15,0.06,2.32,0.18,3.46c3.56,39.27,36.28,55.47,36.28,81.95c0,26.47-32.72,42.67-36.28,81.94
	c-0.12,1.15-0.12,2.33-0.18,3.49C4.13,425.39,4,426.5,4,427.71h0c0,37.57,30.57,68.14,68.15,68.14v0
	c44.46,0,60.93-36.64,88.92-36.64c28,0,44.46,36.64,88.93,36.64v0c1.21,0,2.33-0.13,3.5-0.18c1.16-0.06,2.34-0.06,3.48-0.18
	c39.27-3.56,55.47-36.28,81.95-36.28c26.47,0,42.67,32.72,81.95,36.28c1.14,0.12,2.32,0.12,3.48,0.18c1.17,0.05,2.29,0.18,3.5,0.18
	v0c37.58,0,68.15-30.57,68.15-68.14C496,390.13,465.43,359.56,427.85,359.56z M427.85,181.71c-37.58,0-68.15,30.57-68.15,68.15
	c0,37.57,30.57,68.15,68.15,68.15c37.58,0,68.15-30.57,68.15-68.15C496,212.28,465.43,181.71,427.85,181.71z"/>
</svg>
